HIERARCHY
ROOT root
{
	OFFSET	0	13.1	24.9
	CHANNELS 6  Xposition Yposition Zposition Xrotation Yrotation Zrotation
	JOINT spine_1
	{
		OFFSET	0	9.99999	0
		CHANNELS 3  Xrotation Yrotation Zrotation
		JOINT spine_2
		{
			OFFSET	0	112	-10
			CHANNELS 3  Xrotation Yrotation Zrotation
			JOINT spine_3
			{
				OFFSET	0	206.5	19.3
				CHANNELS 3  Xrotation Yrotation Zrotation
				JOINT spine_4
				{
					OFFSET	0	110.4	14.6
					CHANNELS 3  Xrotation Yrotation Zrotation
					JOINT neck_1
					{
						OFFSET	0	71.8	-50.3
						CHANNELS 3  Xrotation Yrotation Zrotation
						JOINT neck_2
						{
							OFFSET	0	86.2	-25.8
							CHANNELS 3  Xrotation Yrotation Zrotation
							JOINT head_ee
							{
								OFFSET	0	179.8	-8.7
								CHANNELS 3  Xrotation Yrotation Zrotation
								End Site
								{
									OFFSET	1	0	0
								}
							}
						}
					}
					JOINT left_clavicle
					{
						OFFSET	-43.2	22.4	-70.8
						CHANNELS 3  Xrotation Yrotation Zrotation
						JOINT left_shoulder
						{
							OFFSET	-93.9	-5.79999	48.7
							CHANNELS 3  Xrotation Yrotation Zrotation
							JOINT left_elbow
							{
								OFFSET	-291.4	-30.8	15.2
								CHANNELS 3  Xrotation Yrotation Zrotation
								JOINT left_lowarm_twist
								{
									OFFSET	-110.7	-3.89999	13.6
									CHANNELS 3  Xrotation Yrotation Zrotation
									JOINT left_hand
									{
										OFFSET	-110.7	-3.89999	13.6
										CHANNELS 3  Xrotation Yrotation Zrotation
										JOINT left_ee
										{
											OFFSET	-80.8	-5.10001	12.1
											CHANNELS 3  Xrotation Yrotation Zrotation
											End Site
											{
												OFFSET	1	0	0
											}
										}
									}
								}
							}
						}
					}
					JOINT right_clavicle
					{
						OFFSET	43.2	22.4	-70.8
						CHANNELS 3  Xrotation Yrotation Zrotation
						JOINT right_shoulder
						{
							OFFSET	93.9	-5.79999	48.7
							CHANNELS 3  Xrotation Yrotation Zrotation
							JOINT right_elbow
							{
								OFFSET	291.4	-30.8	15.2
								CHANNELS 3  Xrotation Yrotation Zrotation
								JOINT right_lowarm_twist
								{
									OFFSET	110.7	-3.89999	13.6
									CHANNELS 3  Xrotation Yrotation Zrotation
									JOINT right_hand
									{
										OFFSET	110.7	-3.89999	13.6
										CHANNELS 3  Xrotation Yrotation Zrotation
										JOINT right_ee
										{
											OFFSET	80.8	-5.10001	12.1
											CHANNELS 3  Xrotation Yrotation Zrotation
											End Site
											{
												OFFSET	1	0	0
											}
										}
									}
								}
							}
						}
					}
				}
			}
		}
	}
	JOINT left_hip
	{
		OFFSET	-82.8	-127.5	0.300001
		CHANNELS 3  Xrotation Yrotation Zrotation
		JOINT left_knee
		{
			OFFSET	-28.2	-396.7	2.2
			CHANNELS 3  Xrotation Yrotation Zrotation
			JOINT left_ankle
			{
				OFFSET	-11.7	-411.3	35.4
				CHANNELS 3  Xrotation Yrotation Zrotation
				JOINT left_toes
				{
					OFFSET	0	-60	-88.6
					CHANNELS 3  Xrotation Yrotation Zrotation
					JOINT left_foot_ee
					{
						OFFSET	-22.5	-16.5	-42.2
						CHANNELS 3  Xrotation Yrotation Zrotation
						End Site
						{
							OFFSET	1	0	0
						}
					}
				}
			}
		}
	}
	JOINT right_hip
	{
		OFFSET	82.8	-127.5	0.300001
		CHANNELS 3  Xrotation Yrotation Zrotation
		JOINT right_knee
		{
			OFFSET	28.2	-396.7	2.2
			CHANNELS 3  Xrotation Yrotation Zrotation
			JOINT right_ankle
			{
				OFFSET	11.7	-411.3	35.4
				CHANNELS 3  Xrotation Yrotation Zrotation
				JOINT right_toes
				{
					OFFSET	0	-60	-88.6
					CHANNELS 3  Xrotation Yrotation Zrotation
					JOINT right_foot_ee
					{
						OFFSET	22.5	-16.5	-42.2
						CHANNELS 3  Xrotation Yrotation Zrotation
						End Site
						{
							OFFSET	1	0	0
						}
					}
				}
			}
		}
	}
}
MOTION
Frames: 5
Frame Time: 0.02
3557.94179162 718.101 -1512.51926632 5.75713428006 50.1270612551 -10.5455268095 -1.49348 0.665111 3.60424 -1.48636 0.434572 3.6392 -1.45179 -0.432637 3.63943 -1.47024 0.147174 3.66206 -4.14715 17.1001 -2.25553 -3.73647 33.055 0.379535 -0.0 0.0 -0.0 -0.0279329 18.1015 2.07607 -23.324 -14.2728 56.1196 1.81571 -41.9658 0.696413 -46.2824 -3.6427 4.47449 -1.77307 -7.57178 -15.3649 -0.0 0.0 -0.0 13.846 26.2562 -27.6111 -10.585 51.5843 -56.2852 0.454507 12.6887 -0.0505347 -15.6908 0.808921 -1.82974 1.79286 11.6401 -7.15724 0.0 0.0 0.0 5.58742 31.477 -6.16439 -32.4875 -0.0592205 4.91916 14.5905 20.8152 -2.09448 12.2445 -0.0 -0.0 -0.0 0.0 -0.0 -12.3832 31.3472 4.39089 -10.462 -0.287389 -1.57763 32.8392 12.4632 4.40482 -25.3288 0.0 0.0 0.0 0.0 0.0 
3548.17164034 712.645 -1518.12636062 6.86865487773 51.2835289075 -11.1567297473 -1.39025 0.816899 3.58617 -1.38329 0.587201 3.63081 -1.33905 -0.274773 3.66765 -1.35769 0.307514 3.66506 -3.88577 16.8847 -2.66307 -3.4316 32.9274 -0.159185 -0.0 0.0 -0.0 -0.149254 18.3979 1.92643 -25.3906 -15.0581 56.5865 1.74071 -40.7675 0.646845 -46.039 -3.61508 4.45987 -1.51698 -9.19424 -14.2917 -0.0 0.0 -0.0 14.1908 26.3089 -28.4117 -8.14658 52.2864 -57.1836 0.480207 13.3811 -0.0563312 -15.6015 0.802926 -1.82002 1.6115 12.5767 -5.51562 0.0 0.0 0.0 6.6577 29.5448 -6.88901 -34.6586 -0.162373 5.23628 15.8292 21.6184 -2.26956 12.2017 -0.0 -0.0 -0.0 0.0 -0.0 -12.5174 30.6871 4.00177 -10.8608 -0.292608 -1.6386 33.0639 14.2019 4.47461 -25.2231 0.0 0.0 0.0 0.0 0.0 
3526.43168007 717.19 -1531.57789223 8.21560182131 56.5100955715 -12.6676966888 -1.21497 1.10126 3.76196 -1.20751 0.859829 3.82428 -1.14229 -0.0406711 3.9194 -1.16325 0.578362 3.87677 -1.96039 17.6741 -2.53991 -1.20937 33.981 -0.529576 -0.0 0.0 -0.0 -0.721517 21.8857 1.52141 -27.7524 -14.9039 57.2613 1.45984 -35.8709 0.472538 -46.7339 -3.69407 4.50127 -1.34232 -9.6836 -13.2912 -0.0 0.0 -0.0 13.7699 26.6404 -27.3853 -4.55935 53.0721 -59.0979 0.705295 19.2586 -0.119664 -15.1708 0.774207 -1.77294 0.981954 16.0497 0.244479 0.0 0.0 0.0 7.9921 21.4027 -8.4816 -36.402 -0.253876 5.48801 16.5384 21.2879 -2.36144 11.5017 -0.0 -0.0 -0.0 0.0 -0.0 -12.7789 29.8361 4.36358 -11.6926 -0.302127 -1.76587 38.5356 18.0397 5.14055 -25.1101 0.0 0.0 0.0 0.0 0.0 
3516.39879115 713.81 -1530.1389697 7.87118862656 59.6392609919 -12.7900622952 -1.00442 1.13214 3.92753 -0.996274 0.880127 3.99147 -0.927 -0.0438825 4.08697 -0.949799 0.601592 4.04276 -3.19572 18.1008 -1.99423 -2.61479 34.5478 0.492842 -0.0 0.0 -0.0 -0.871871 23.2692 1.49586 -28.7002 -15.0091 58.1441 1.37007 -34.1626 0.421017 -47.1638 -3.7432 4.52641 -1.31394 -8.87914 -12.7452 -0.0 0.0 -0.0 13.7343 26.2897 -27.3464 -2.20519 53.2103 -59.4014 0.773838 20.9736 -0.14324 -14.8092 0.750378 -1.73327 0.647932 16.7604 2.78869 0.0 0.0 0.0 8.51463 18.5034 -8.30646 -37.1399 -0.294905 5.5937 16.1709 18.9412 -2.29109 11.2126 -0.0 -0.0 -0.0 0.0 -0.0 -13.3029 28.7255 4.34611 -12.7717 -0.311722 -1.93116 38.8783 18.3239 5.18311 -25.0445 0.0 0.0 0.0 0.0 0.0 
3503.97463891 715.868 -1523.01066178 9.40032647352 61.6010276524 -14.5016610249 -0.979733 1.09315 3.86836 -0.971806 0.844972 3.92995 -0.906228 -0.0628533 4.01913 -0.928308 0.572171 3.97876 -4.05281 18.4018 -1.61945 -3.59514 34.9615 1.2075 -0.0 0.0 -0.0 -1.03013 24.041 1.38602 -29.3616 -14.2932 59.7502 1.23216 -31.3976 0.34633 -46.7068 -3.69098 4.49968 -1.35128 -7.3511 -12.3355 -0.0 0.0 -0.0 13.5896 26.3769 -26.9985 -0.281818 53.5433 -60.0029 0.902535 24.0886 -0.192573 -14.544 0.733056 -1.70407 0.269794 16.736 5.31139 0.0 0.0 0.0 11.6872 16.536 -6.96393 -38.4568 -0.371518 5.78103 12.3007 16.3745 -1.75395 10.7296 -0.0 -0.0 -0.0 0.0 -0.0 -14.0241 28.5465 3.41666 -13.527 -0.316585 -2.04695 38.1291 19.2449 5.14985 -25.1066 0.0 0.0 0.0 0.0 0.0 
